<?xml version="1.0" standalone="no"?>
<!DOCTYPE svg PUBLIC "-//W3C//DTD SVG 20010904//EN"
 "http://www.w3.org/TR/2001/REC-SVG-20010904/DTD/svg10.dtd">
<svg version="1.0" xmlns="http://www.w3.org/2000/svg"
 width="1024.000000pt" height="1024.000000pt" viewBox="0 0 1024.000000 1024.000000"
 preserveAspectRatio="xMidYMid meet">

<g transform="translate(0.000000,1024.000000) scale(0.100000,-0.100000)"
fill="#000000" stroke="none">
<path d="M1025 9008 c-3 -7 -4 -242 -3 -523 l3 -510 627 -3 628 -2 2 -2638 3
-2637 103 -3 102 -3 0 2641 0 2640 140 0 140 0 0 -2640 0 -2641 103 3 102 3 3
2638 2 2637 150 0 150 0 0 -2640 0 -2641 103 3 102 3 3 2638 2 2637 150 0 150
0 0 -2640 0 -2640 100 0 100 0 0 2640 0 2640 155 0 155 0 0 -2640 0 -2640 100
0 100 0 0 2640 0 2640 150 0 150 0 2 -2637 3 -2638 103 -3 102 -3 0 2641 0
2640 160 0 160 0 0 -2640 0 -2641 103 3 102 3 3 2638 2 2637 150 0 150 0 0
-2640 0 -2640 100 0 100 0 0 2640 0 2640 155 0 155 0 0 -2640 0 -2640 100 0
100 0 0 2640 0 2640 155 0 155 0 0 -2640 0 -2640 100 0 100 0 0 2640 0 2640
150 0 150 0 2 -2637 3 -2638 103 -3 102 -3 0 2641 0 2640 160 0 160 0 0 -2640
0 -2641 98 3 97 3 3 2637 2 2638 563 2 562 3 0 520 0 520 -4093 3 c-3269 2
-4094 0 -4097 -10z"/>
</g>
</svg>
