<svg xmlns="http://www.w3.org/2000/svg" viewBox="0 -18 210 175.16107316686725" height="300" width="360" style="width: 360px; height: 300px; position: absolute; top: 50%; left: 50%; transform: translate(-50%, -50%) scale(1.290); z-index: 0; cursor: pointer;">
    <defs id="SvgjsDefs1011"></defs>
    <g id="SvgjsG1012" featurekey="monogramFeature-0" transform="matrix(2.4583413966810097,0,0,2.4583413966810097,41.14750034313344,-66.85110459147977)" fill="#111111">
        <path d="M1.68 74.22 c-0.6 0.24 -1.02 -0.12 -0.54 -1.02 c0.24 -0.6 1.26 -5.1 2.34 -10.5 c-2.28 -0.6 -3.54 -1.5 -3.54 -2.46 c0 -1.62 0.78 -4.68 5.94 -10.62 l0.36 -2.16 c1.38 -8.7 4.02 -26.16 4.2 -27.06 c0.12 -0.9 1.8 -0.78 1.5 1.38 c-0.18 1.26 -2.58 14.4 -4.8 26.46 c2.64 -2.82 6.18 -6.24 11.04 -10.32 c16.44 -13.92 23.94 -16.56 24.78 -17.34 c0.9 -0.78 1.44 -0.84 0.9 0.3 c-0.9 1.92 -9.12 5.88 -24.06 18 c-6.18 4.98 -10.44 9.18 -13.26 12.54 l-1.92 10.32 c3.12 0.54 8.1 0.78 14.1 0.36 c10.14 -0.72 15.06 -2.16 16.56 -2.88 s1.74 -0.42 1.2 0.12 c-0.54 0.6 -5.46 3 -16.8 4.14 c-6.36 0.6 -11.76 0.24 -15.3 -0.54 l-0.9 4.68 c-1.2 5.82 -1.2 6.42 -1.8 6.6 z M1.2 60.18 c0 0.54 0.9 1.02 2.52 1.38 l1.56 -8.58 c-3.12 3.9 -4.08 6.42 -4.08 7.2 z"></path>
    </g>
</svg>
