<svg xmlns="http://www.w3.org/2000/svg" viewBox="0 -18 210 175.16107316686725" height="175.16107316686725" width="210" style="width: 210px; height: 175.161px; position: absolute; top: 50%; left: 50%; transform: translate(-50%, -50%) scale(0.753592); z-index: 0; cursor: pointer;">
    <defs id="SvgjsDefs1011"></defs>
    <g id="SvgjsG1012" featurekey="monogramFeature-0" transform="matrix(2.4583413966810097,0,0,2.4583413966810097,41.14750034313344,-66.85110459147977)" fill="#111111">
        <path d="M1.68 74.22 c-0.6 0.24 -1.02 -0.12 -0.54 -1.02 c0.24 -0.6 1.26 -5.1 2.34 -10.5 c-2.28 -0.6 -3.54 -1.5 -3.54 -2.46 c0 -1.62 0.78 -4.68 5.94 -10.62 l0.36 -2.16 c1.38 -8.7 4.02 -26.16 4.2 -27.06 c0.12 -0.9 1.8 -0.78 1.5 1.38 c-0.18 1.26 -2.58 14.4 -4.8 26.46 c2.64 -2.82 6.18 -6.24 11.04 -10.32 c16.44 -13.92 23.94 -16.56 24.78 -17.34 c0.9 -0.78 1.44 -0.84 0.9 0.3 c-0.9 1.92 -9.12 5.88 -24.06 18 c-6.18 4.98 -10.44 9.18 -13.26 12.54 l-1.92 10.32 c3.12 0.54 8.1 0.78 14.1 0.36 c10.14 -0.72 15.06 -2.16 16.56 -2.88 s1.74 -0.42 1.2 0.12 c-0.54 0.6 -5.46 3 -16.8 4.14 c-6.36 0.6 -11.76 0.24 -15.3 -0.54 l-0.9 4.68 c-1.2 5.82 -1.2 6.42 -1.8 6.6 z M1.2 60.18 c0 0.54 0.9 1.02 2.52 1.38 l1.56 -8.58 c-3.12 3.9 -4.08 6.42 -4.08 7.2 z">
        </path>
    </g>
    <g id="SvgjsG1013" featurekey="nameFeature-0" transform="matrix(0.816697405806493,0,0,0.816697405806493,-3.42931269983408,124.190083823498)" fill="#111111">
        <path d="M20.156 40 l-9.6875 -12.598 l-2.3828 0 l0 12.598 l-3.8867 0 l0 -27.617 l3.8867 0 l0 11.543 l2.3438 0 l9.4141 -11.543 l4.7656 0 l-10.82 13.164 l11.348 14.453 l-4.9805 0 z M54.65349609375 40 l-2.3047 -6.4453 l-12.344 0 l-2.3047 6.4453 l-4.043 0 l10.176 -27.617 l4.6875 0 l10.176 27.617 l-4.043 0 z M41.21629609375 30.1562 l9.9219 0 l-4.9609 -13.926 z M79.0932109375 40.37109 c-5.7617 0 -9.9805 -2.7539 -10.918 -7.4414 l3.9648 -0.9375 c0.625 3.2227 3.418 5.0781 7.0898 5.0781 c2.9492 0 5.7813 -1.2109 5.7227 -4.5313 c-0.039063 -3.2813 -3.5938 -4.1797 -7.3633 -5.2148 c-4.2773 -1.1719 -8.5547 -2.5195 -8.5547 -7.5977 c0 -5.1367 4.2383 -7.7148 9.2578 -7.7148 c4.8633 0 9.2383 2.0508 10.273 6.7969 l-3.7695 0.95703 c-0.68359 -3.0664 -3.2422 -4.4336 -6.3281 -4.4336 c-2.7734 0 -5.5273 1.2109 -5.5273 4.3555 c0 2.8516 3.0859 3.6914 6.582 4.6289 c4.3945 1.1914 9.4336 2.5586 9.4336 8.1055 c0 5.5859 -4.6875 7.9492 -9.8633 7.9492 z M116.51976953125 12.383 l0 3.4961 l-6.9922 0 l0 24.121 l-3.8477 0 l0 -24.121 l-7.0117 0 l0 -3.4961 l17.852 0 z M143.263921875 15.879000000000001 l-11.055 0 l0 8.5938 l9.7461 0 l0 3.4766 l-9.7461 0 l0 8.5352 l11.055 0 l0 3.5156 l-15.02 0 l0 -27.617 l15.02 0 l0 3.4961 z M160.20259921875 36.4844 l9.4336 0 l0 3.5156 l-13.32 0 l0 -27.617 l3.8867 0 l0 24.102 z M199.2506640625 40 l-2.3047 -6.4453 l-12.344 0 l-2.3047 6.4453 l-4.043 0 l10.176 -27.617 l4.6875 0 l10.176 27.617 l-4.043 0 z M185.8134640625 30.1562 l9.9219 0 l-4.9609 -13.926 z M229.94037890625 40 l-7.1484 -12.422 l-3.8672 0 l0 12.422 l-3.8867 0 l0 -27.617 l9.2969 0 c5.7813 0 8.418 3.5352 8.418 7.8711 c0 3.8477 -2.2656 6.5234 -6.0547 7.168 l7.793 12.578 l-4.5508 0 z M218.92427890625 15.742 l0 8.8672 l4.8828 0 c3.5938 0 5.2148 -1.7969 5.2148 -4.4141 c0 -2.5781 -1.6211 -4.4531 -5.2148 -4.4531 l-4.8828 0 z M261.33178125 12.383 l0 3.4961 l-6.9922 0 l0 24.121 l-3.8477 0 l0 -24.121 l-7.0117 0 l0 -3.4961 l17.852 0 z"></path>
    </g>
</svg>
