<?xml version="1.0" standalone="no"?>
<!DOCTYPE svg PUBLIC "-//W3C//DTD SVG 20010904//EN"
 "http://www.w3.org/TR/2001/REC-SVG-20010904/DTD/svg10.dtd">
<svg version="1.0" xmlns="http://www.w3.org/2000/svg"
 width="200.000000pt" height="100.000000pt" viewBox="0 0 639.000000 390.000000"
 preserveAspectRatio="xMidYMid meet">

<g transform="translate(0,300.000000) scale(0.100000,-0.100000)"
fill="white" stroke="none">
<path d="M2876 2933 c-3 -10 -21 -124 -41 -253 -20 -129 -43 -275 -51 -325 -8
-49 -25 -165 -39 -256 -34 -233 -37 -241 -87 -301 -126 -150 -191 -296 -159
-357 6 -10 29 -26 53 -36 24 -10 48 -22 54 -27 11 -8 -7 -112 -55 -311 -24
-100 -25 -117 -11 -117 18 0 30 40 68 230 37 181 38 185 62 184 14 -1 75 -7
135 -14 181 -21 509 0 720 46 164 36 305 87 305 110 0 10 -11 8 -47 -7 -132
-57 -538 -109 -831 -108 -174 0 -275 8 -289 23 -11 10 57 367 75 396 8 13 70
78 136 145 222 221 567 495 988 784 190 130 248 178 248 203 0 6 -10 4 -23 -5
-12 -8 -65 -38 -117 -67 -324 -179 -827 -568 -1132 -875 -49 -48 -88 -81 -88
-73 0 8 9 64 20 124 129 690 150 811 150 862 0 35 -3 42 -19 42 -11 0 -22 -8
-25 -17z m-200 -1250 c-45 -247 -49 -263 -68 -263 -35 0 -78 29 -78 53 1 31
33 98 86 178 52 78 70 88 60 32z"/>
<path d="M1872 503 c3 -151 5 -168 21 -171 15 -3 17 6 17 77 0 107 15 107 98
1 41 -52 69 -80 82 -80 11 0 20 4 20 9 0 5 -27 42 -60 84 -33 41 -60 79 -60
85 0 6 21 37 48 69 81 99 78 93 51 93 -18 0 -41 -20 -87 -75 -77 -93 -92 -92
-92 6 0 63 -2 69 -20 69 -20 0 -20 -5 -18 -167z"/>
<path d="M2349 643 c-51 -134 -109 -293 -109 -302 0 -6 9 -11 20 -11 14 0 23
11 31 40 l12 41 80 -3 80 -3 12 -35 c8 -23 19 -36 33 -38 12 -2 22 0 22 5 0 8
-38 113 -96 266 -22 57 -29 67 -50 67 -17 0 -28 -8 -35 -27z m65 -97 c37 -96
37 -96 -35 -96 -54 0 -60 2 -54 18 4 9 14 37 22 62 25 74 33 93 37 89 3 -2 16
-35 30 -73z"/>
<path d="M2701 644 c-25 -21 -31 -34 -31 -64 0 -44 29 -74 83 -86 18 -3 49
-15 70 -26 34 -17 38 -23 35 -51 -4 -44 -45 -64 -99 -48 -21 7 -43 21 -49 31
-12 23 -50 27 -50 6 0 -23 51 -65 86 -72 47 -9 105 4 132 29 22 20 29 67 16
102 -8 19 -66 50 -114 60 -44 9 -70 32 -70 60 0 32 26 50 72 50 31 0 45 -6 60
-25 11 -14 28 -23 37 -22 23 5 24 8 12 31 -30 55 -138 69 -190 25z"/>
<path d="M3030 651 c0 -16 8 -20 43 -23 l42 -3 3 -148 c2 -134 4 -148 20 -145
15 3 17 20 20 151 l3 147 39 0 c33 0 40 3 40 20 0 19 -7 20 -105 20 -97 0
-105 -1 -105 -19z"/>
<path d="M3392 503 l3 -168 88 -3 c82 -3 87 -2 87 18 0 18 -6 20 -65 20 l-65
0 0 55 0 55 60 0 c53 0 60 2 60 20 0 18 -7 20 -60 20 l-60 0 0 55 0 55 65 0
c58 0 65 2 65 20 0 19 -7 20 -90 20 l-90 0 2 -167z"/>
<path d="M3740 500 l0 -171 77 3 c65 3 78 6 81 21 3 15 -5 17 -57 17 l-61 0 0
150 c0 143 -1 150 -20 150 -19 0 -20 -7 -20 -170z"/>
<path d="M4130 667 c0 -2 -27 -77 -60 -167 -33 -90 -60 -165 -60 -167 0 -3 10
-3 22 -1 14 2 25 15 33 38 l12 35 80 3 80 3 16 -41 c14 -37 47 -57 47 -29 0 6
-26 83 -57 170 -56 153 -59 159 -85 159 -16 0 -28 -1 -28 -3z m64 -135 c14
-40 26 -75 26 -78 0 -2 -27 -4 -60 -4 -33 0 -60 3 -60 8 0 20 55 161 61 154 4
-4 19 -40 33 -80z"/>
<path d="M4460 500 c0 -162 1 -170 20 -170 17 0 19 8 22 78 3 71 5 77 25 80
18 3 30 -11 68 -77 33 -57 52 -81 66 -81 27 0 24 12 -23 87 -31 50 -39 68 -28
71 30 10 60 52 60 82 0 69 -47 100 -150 100 l-60 0 0 -170z m152 113 c10 -9
18 -26 18 -39 0 -37 -26 -54 -81 -54 l-49 0 0 55 0 55 47 0 c29 0 53 -6 65
-17z"/>
<path d="M4810 650 c0 -17 7 -20 40 -20 l39 0 3 -147 c3 -140 4 -148 23 -148
19 0 20 8 23 148 l3 147 39 0 c33 0 40 3 40 20 0 19 -7 20 -105 20 -98 0 -105
-1 -105 -20z"/>
</g>
</svg>
